<svg width="48" height="48" viewBox="0 0 48 48" fill="none" xmlns="http://www.w3.org/2000/svg">
<rect x="0.5" y="0.5" width="47" height="47" rx="7.5" fill="#222222" stroke="#0C0C0C"/>
<path d="M15.0483 37.002C14.9492 37.002 14.8501 36.9691 14.7676 36.9196C14.619 36.7878 14.5694 36.5241 14.6685 36.3428L20.5966 25.9771H16.2537C16.0886 25.9771 15.9069 25.8617 15.8409 25.6969C15.7914 25.5651 15.8244 25.3508 15.94 25.2355L29.0016 10.9475C29.1337 10.7992 29.3648 10.7663 29.53 10.8816C29.6951 10.997 29.7611 11.2112 29.6786 11.3925L25.1376 21.9725H30.6859C30.851 21.9725 31.0822 22.1373 31.1482 22.2856C31.2143 22.4834 31.1647 22.6976 31.0161 22.8294L15.362 36.8867C15.2795 36.9691 15.1639 37.002 15.0483 37.002ZM17.1124 25.1696H21.2571C21.4057 25.1696 21.5708 25.2684 21.6369 25.3838C21.7029 25.4992 21.7029 25.6969 21.6369 25.8288L16.5509 34.7113L29.8107 22.7965H24.6257C24.4936 22.7965 24.2954 22.6976 24.2129 22.5822C24.1303 22.4339 24.1138 22.2691 24.1798 22.1043L27.9613 13.3041L17.1124 25.1696Z" fill="white"/>
<path d="M16.9756 25.1707L26.3414 15.2195L22.5598 23.9645C22.2432 24.6967 21.5218 25.1707 20.7241 25.1707H16.9756Z" fill="#7779FF"/>
</svg>
