<svg width="48" height="48" viewBox="0 0 48 48" fill="none" xmlns="http://www.w3.org/2000/svg">
<rect width="48" height="48" rx="8" fill="#222222"/>
<path d="M26.0077 35.3984L22.7595 35.3811C22.5176 35.3811 22.3276 35.191 22.3276 34.9492C22.3276 34.7073 22.5176 34.5172 22.7595 34.5172L26.0077 34.5345C26.2496 34.5345 26.4397 34.7245 26.4397 34.9664C26.4397 35.2083 26.2496 35.3984 26.0077 35.3984Z" fill="white"/>
<path d="M25.1784 37.6099L23.5889 37.5926C23.347 37.5926 23.1569 37.3853 23.1569 37.1607C23.1569 36.9188 23.347 36.7288 23.5889 36.7288L25.1784 36.746C25.4203 36.746 25.6104 36.9534 25.6104 37.178C25.6104 37.4199 25.4203 37.6099 25.1784 37.6099Z" fill="white"/>
<path d="M26.0077 32.7202H22.4312L21.8092 30.6469C20.8244 27.3987 19.183 24.4615 17.5416 21.7834C15.9866 19.2263 16.0039 16.0817 17.6107 13.5419C19.9087 9.94814 24.7292 8.85964 28.3575 11.1576C30.1544 12.2979 31.3984 14.1985 31.7785 16.3927C32.1586 18.6043 31.6403 20.8159 30.3272 22.5091C30.1889 22.6991 29.9125 22.7337 29.7224 22.5782C29.5324 22.44 29.4978 22.1635 29.6533 21.9735C30.8109 20.4876 31.2774 18.5006 30.9319 16.5482C30.5863 14.5959 29.4805 12.9026 27.891 11.8832C24.66 9.84447 20.3924 10.7947 18.3364 14.0084C16.9196 16.2545 16.8851 19.0535 18.2846 21.3342C19.9605 24.0641 21.6364 27.0358 22.6386 30.3877L23.0705 31.8391H26.0077C26.2496 31.8391 26.4397 32.0291 26.4397 32.271C26.4397 32.5129 26.2496 32.7202 26.0077 32.7202Z" fill="white"/>
<circle cx="21.6585" cy="16.9756" r="4.09756" fill="#7779FF"/>
</svg>
