<svg width="617" height="70" viewBox="0 0 617 70" fill="none" xmlns="http://www.w3.org/2000/svg">
<rect width="121" height="70" fill="black"/>
<path d="M76.9409 20.9013C74.0091 19.5584 70.8651 18.569 67.5778 18.0024C67.5179 17.9914 67.4581 18.0188 67.4273 18.0734C67.023 18.7913 66.5751 19.7279 66.2614 20.464C62.7258 19.9356 59.2083 19.9356 55.7451 20.464C55.4314 19.7115 54.9673 18.7913 54.5611 18.0734C54.5303 18.0206 54.4705 17.9933 54.4106 18.0024C51.1252 18.5672 47.9812 19.5566 45.0475 20.9013C45.0221 20.9122 45.0003 20.9305 44.9858 20.9541C39.0223 29.8477 37.3887 38.5227 38.1901 47.0901C38.1937 47.132 38.2173 47.1721 38.2499 47.1976C42.1845 50.0819 45.9958 51.833 49.7363 52.9936C49.7961 53.0119 49.8596 52.99 49.8977 52.9408C50.7825 51.7346 51.5712 50.4628 52.2475 49.1253C52.2874 49.047 52.2493 48.9541 52.1677 48.9231C50.9167 48.4494 49.7254 47.8718 48.5795 47.2158C48.4888 47.163 48.4816 47.0336 48.565 46.9716C48.8061 46.7913 49.0473 46.6036 49.2776 46.4141C49.3192 46.3795 49.3773 46.3722 49.4263 46.394C56.9545 49.8251 65.1046 49.8251 72.544 46.394C72.593 46.3704 72.651 46.3777 72.6945 46.4123C72.9248 46.6018 73.166 46.7913 73.4089 46.9716C73.4923 47.0336 73.4869 47.163 73.3962 47.2158C72.2503 47.8845 71.059 48.4494 69.8061 48.9213C69.7246 48.9523 69.6883 49.047 69.7282 49.1253C70.419 50.4609 71.2077 51.7327 72.0762 52.939C72.1125 52.99 72.1777 53.0119 72.2376 52.9936C75.9963 51.833 79.8075 50.0819 83.7421 47.1976C83.7765 47.1721 83.7983 47.1338 83.8019 47.0919C84.7611 37.187 82.1954 28.5832 77.0007 20.956C76.988 20.9305 76.9663 20.9122 76.9409 20.9013ZM53.3717 41.8735C51.1052 41.8735 49.2377 39.7963 49.2377 37.2454C49.2377 34.6944 51.069 32.6173 53.3717 32.6173C55.6925 32.6173 57.542 34.7127 57.5057 37.2454C57.5057 39.7963 55.6744 41.8735 53.3717 41.8735ZM68.6566 41.8735C66.3902 41.8735 64.5226 39.7963 64.5226 37.2454C64.5226 34.6944 66.3539 32.6173 68.6566 32.6173C70.9775 32.6173 72.8269 34.7127 72.7906 37.2454C72.7906 39.7963 70.9775 41.8735 68.6566 41.8735Z" fill="white"/>
<rect width="496" height="70" transform="translate(121)" fill="#404EED"/>
<path d="M166.965 23H170.574V40.0156C170.574 41.5547 170.27 42.8711 169.66 43.9648C169.059 45.0586 168.211 45.8945 167.117 46.4727C166.023 47.043 164.742 47.3281 163.273 47.3281C161.922 47.3281 160.707 47.082 159.629 46.5898C158.559 46.0977 157.711 45.3828 157.086 44.4453C156.469 43.5 156.16 42.3516 156.16 41H159.758C159.758 41.6641 159.91 42.2383 160.215 42.7227C160.527 43.207 160.953 43.5859 161.492 43.8594C162.039 44.125 162.664 44.2578 163.367 44.2578C164.133 44.2578 164.781 44.0977 165.312 43.7773C165.852 43.4492 166.262 42.9687 166.543 42.3359C166.824 41.7031 166.965 40.9297 166.965 40.0156V23ZM199.992 35C199.992 37.5625 199.524 39.7656 198.586 41.6094C197.649 43.4453 196.363 44.8594 194.731 45.8516C193.106 46.8359 191.258 47.3281 189.188 47.3281C187.11 47.3281 185.254 46.8359 183.621 45.8516C181.996 44.8594 180.715 43.4414 179.778 41.5977C178.84 39.7539 178.371 37.5547 178.371 35C178.371 32.4375 178.84 30.2383 179.778 28.4023C180.715 26.5586 181.996 25.1445 183.621 24.1602C185.254 23.168 187.11 22.6719 189.188 22.6719C191.258 22.6719 193.106 23.168 194.731 24.1602C196.363 25.1445 197.649 26.5586 198.586 28.4023C199.524 30.2383 199.992 32.4375 199.992 35ZM196.406 35C196.406 33.0469 196.09 31.4023 195.457 30.0664C194.832 28.7227 193.973 27.707 192.879 27.0195C191.793 26.3242 190.563 25.9766 189.188 25.9766C187.805 25.9766 186.571 26.3242 185.485 27.0195C184.399 27.707 183.539 28.7227 182.906 30.0664C182.281 31.4023 181.969 33.0469 181.969 35C181.969 36.9531 182.281 38.6016 182.906 39.9453C183.539 41.2812 184.399 42.2969 185.485 42.9922C186.571 43.6797 187.805 44.0234 189.188 44.0234C190.563 44.0234 191.793 43.6797 192.879 42.9922C193.973 42.2969 194.832 41.2812 195.457 39.9453C196.09 38.6016 196.406 36.9531 196.406 35ZM211.428 23V47H207.807V23H211.428ZM239.373 23V47H236.045L223.845 29.3984H223.623V47H220.002V23H223.353L235.564 40.625H235.787V23H239.373ZM258.805 26.1172V23H277.379V26.1172H269.891V47H266.281V26.1172H258.805ZM284.783 47V23H288.404V33.4297H300.369V23H304.002V47H300.369V36.5352H288.404V47H284.783ZM312.576 47V23H327.622V26.1172H316.197V33.4297H326.837V36.5352H316.197V43.8828H327.763V47H312.576ZM367.726 30.8047H364.07C363.929 30.0234 363.668 29.3359 363.285 28.7422C362.902 28.1484 362.433 27.6445 361.879 27.2305C361.324 26.8164 360.703 26.5039 360.015 26.293C359.336 26.082 358.613 25.9766 357.847 25.9766C356.465 25.9766 355.226 26.3242 354.133 27.0195C353.047 27.7148 352.187 28.7344 351.554 30.0781C350.929 31.4219 350.617 33.0625 350.617 35C350.617 36.9531 350.929 38.6016 351.554 39.9453C352.187 41.2891 353.051 42.3047 354.144 42.9922C355.238 43.6797 356.469 44.0234 357.836 44.0234C358.594 44.0234 359.312 43.9219 359.992 43.7187C360.679 43.5078 361.301 43.1992 361.855 42.793C362.41 42.3867 362.879 41.8906 363.262 41.3047C363.652 40.7109 363.922 40.0312 364.07 39.2656L367.726 39.2773C367.531 40.457 367.152 41.543 366.59 42.5352C366.035 43.5195 365.32 44.3711 364.445 45.0898C363.578 45.8008 362.586 46.3516 361.469 46.7422C360.351 47.1328 359.133 47.3281 357.812 47.3281C355.734 47.3281 353.883 46.8359 352.258 45.8516C350.633 44.8594 349.351 43.4414 348.414 41.5977C347.484 39.7539 347.019 37.5547 347.019 35C347.019 32.4375 347.488 30.2383 348.426 28.4023C349.363 26.5586 350.644 25.1445 352.269 24.1602C353.894 23.168 355.742 22.6719 357.812 22.6719C359.086 22.6719 360.273 22.8555 361.375 23.2227C362.484 23.582 363.48 24.1133 364.363 24.8164C365.246 25.5117 365.976 26.3633 366.554 27.3711C367.133 28.3711 367.523 29.5156 367.726 30.8047ZM396.207 35C396.207 37.5625 395.738 39.7656 394.801 41.6094C393.863 43.4453 392.578 44.8594 390.945 45.8516C389.32 46.8359 387.473 47.3281 385.402 47.3281C383.324 47.3281 381.469 46.8359 379.836 45.8516C378.211 44.8594 376.93 43.4414 375.992 41.5977C375.055 39.7539 374.586 37.5547 374.586 35C374.586 32.4375 375.055 30.2383 375.992 28.4023C376.93 26.5586 378.211 25.1445 379.836 24.1602C381.469 23.168 383.324 22.6719 385.402 22.6719C387.473 22.6719 389.32 23.168 390.945 24.1602C392.578 25.1445 393.863 26.5586 394.801 28.4023C395.738 30.2383 396.207 32.4375 396.207 35ZM392.621 35C392.621 33.0469 392.305 31.4023 391.672 30.0664C391.047 28.7227 390.188 27.707 389.094 27.0195C388.008 26.3242 386.777 25.9766 385.402 25.9766C384.02 25.9766 382.785 26.3242 381.699 27.0195C380.613 27.707 379.754 28.7227 379.121 30.0664C378.496 31.4023 378.184 33.0469 378.184 35C378.184 36.9531 378.496 38.6016 379.121 39.9453C379.754 41.2812 380.613 42.2969 381.699 42.9922C382.785 43.6797 384.02 44.0234 385.402 44.0234C386.777 44.0234 388.008 43.6797 389.094 42.9922C390.188 42.2969 391.047 41.2812 391.672 39.9453C392.305 38.6016 392.621 36.9531 392.621 35ZM404.022 23H408.416L416.057 41.6562H416.338L423.979 23H428.373V47H424.928V29.6328H424.705L417.627 46.9648H414.768L407.69 29.6211H407.467V47H404.022V23ZM436.938 23H441.332L448.973 41.6562H449.254L456.895 23H461.289V47H457.844V29.6328H457.621L450.543 46.9648H447.684L440.606 29.6211H440.383V47H436.938V23ZM485.288 23H488.921V38.7852C488.921 40.4648 488.526 41.9531 487.737 43.25C486.948 44.5391 485.838 45.5547 484.409 46.2969C482.979 47.0313 481.303 47.3984 479.381 47.3984C477.467 47.3984 475.796 47.0313 474.366 46.2969C472.936 45.5547 471.827 44.5391 471.038 43.25C470.249 41.9531 469.854 40.4648 469.854 38.7852V23H473.475V38.4922C473.475 39.5781 473.713 40.543 474.19 41.3867C474.674 42.2305 475.358 42.8945 476.241 43.3789C477.124 43.8555 478.171 44.0937 479.381 44.0937C480.6 44.0937 481.651 43.8555 482.534 43.3789C483.424 42.8945 484.104 42.2305 484.573 41.3867C485.049 40.543 485.288 39.5781 485.288 38.4922V23ZM516.856 23V47H513.528L501.329 29.3984H501.106V47H497.485V23H500.837L513.048 40.625H513.27V23H516.856ZM529.06 23V47H525.438V23H529.06ZM536.449 26.1172V23H555.024V26.1172H547.535V47H543.926V26.1172H536.449ZM560.577 23H564.69L570.959 33.9102H571.217L577.487 23H581.6L572.893 37.5781V47H569.284V37.5781L560.577 23Z" fill="white"/>
</svg>
