<svg width="361" height="70" viewBox="0 0 361 70" fill="none" xmlns="http://www.w3.org/2000/svg">
<rect width="226" height="70" fill="black"/>
<path d="M36.6367 47V23H40.2578V43.8828H51.1328V47H36.6367ZM62.1848 23V47H58.5637V23H62.1848ZM90.6918 30.8047H87.0355C86.8949 30.0234 86.6332 29.3359 86.2504 28.7422C85.8676 28.1484 85.3988 27.6445 84.8441 27.2305C84.2895 26.8164 83.6684 26.5039 82.9809 26.293C82.3012 26.082 81.5785 25.9766 80.8129 25.9766C79.4301 25.9766 78.1918 26.3242 77.098 27.0195C76.0121 27.7148 75.1527 28.7344 74.5199 30.0781C73.8949 31.4219 73.5824 33.0625 73.5824 35C73.5824 36.9531 73.8949 38.6016 74.5199 39.9453C75.1527 41.2891 76.016 42.3047 77.1098 42.9922C78.2035 43.6797 79.434 44.0234 80.8012 44.0234C81.559 44.0234 82.2777 43.9219 82.9574 43.7187C83.6449 43.5078 84.266 43.1992 84.8207 42.793C85.3754 42.3867 85.8441 41.8906 86.227 41.3047C86.6176 40.7109 86.8871 40.0312 87.0355 39.2656L90.6918 39.2773C90.4965 40.457 90.1176 41.543 89.5551 42.5352C89.0004 43.5195 88.2855 44.3711 87.4105 45.0898C86.5434 45.8008 85.5512 46.3516 84.434 46.7422C83.3168 47.1328 82.098 47.3281 80.7777 47.3281C78.6996 47.3281 76.848 46.8359 75.223 45.8516C73.598 44.8594 72.3168 43.4414 71.3793 41.5977C70.4496 39.7539 69.9848 37.5547 69.9848 35C69.9848 32.4375 70.4535 30.2383 71.391 28.4023C72.3285 26.5586 73.6098 25.1445 75.2348 24.1602C76.8598 23.168 78.7074 22.6719 80.7777 22.6719C82.0512 22.6719 83.2387 22.8555 84.3402 23.2227C85.4496 23.582 86.4457 24.1133 87.3285 24.8164C88.2113 25.5117 88.9418 26.3633 89.5199 27.3711C90.098 28.3711 90.4887 29.5156 90.6918 30.8047ZM98.3248 47V23H113.372V26.1172H101.946V33.4297H112.587V36.5352H101.946V43.8828H113.512V47H98.3248ZM140.88 23V47H137.552L125.352 29.3984H125.13V47H121.509V23H124.86L137.071 40.625H137.294V23H140.88ZM162.552 29.3047C162.427 28.1953 161.911 27.3359 161.005 26.7266C160.099 26.1094 158.958 25.8008 157.583 25.8008C156.599 25.8008 155.747 25.957 155.028 26.2695C154.31 26.5742 153.751 26.9961 153.353 27.5352C152.962 28.0664 152.767 28.6719 152.767 29.3516C152.767 29.9219 152.899 30.4141 153.165 30.8281C153.438 31.2422 153.794 31.5898 154.231 31.8711C154.677 32.1445 155.153 32.375 155.661 32.5625C156.169 32.7422 156.657 32.8906 157.126 33.0078L159.47 33.6172C160.235 33.8047 161.021 34.0586 161.825 34.3789C162.63 34.6992 163.376 35.1211 164.063 35.6445C164.751 36.168 165.306 36.8164 165.728 37.5898C166.157 38.3633 166.372 39.2891 166.372 40.3672C166.372 41.7266 166.021 42.9336 165.317 43.9883C164.622 45.043 163.61 45.875 162.282 46.4844C160.962 47.0938 159.364 47.3984 157.489 47.3984C155.692 47.3984 154.138 47.1133 152.825 46.543C151.513 45.9727 150.485 45.1641 149.743 44.1172C149.001 43.0625 148.591 41.8125 148.513 40.3672H152.146C152.216 41.2344 152.497 41.957 152.989 42.5352C153.489 43.1055 154.126 43.5312 154.899 43.8125C155.681 44.0859 156.536 44.2227 157.466 44.2227C158.489 44.2227 159.399 44.0625 160.196 43.7422C161.001 43.4141 161.634 42.9609 162.095 42.3828C162.556 41.7969 162.786 41.1133 162.786 40.332C162.786 39.6211 162.583 39.0391 162.177 38.5859C161.778 38.1328 161.235 37.7578 160.548 37.4609C159.868 37.1641 159.099 36.9023 158.239 36.6758L155.403 35.9023C153.481 35.3789 151.958 34.6094 150.833 33.5938C149.716 32.5781 149.157 31.2344 149.157 29.5625C149.157 28.1797 149.532 26.9727 150.282 25.9414C151.032 24.9102 152.048 24.1094 153.329 23.5391C154.61 22.9609 156.056 22.6719 157.665 22.6719C159.29 22.6719 160.724 22.957 161.966 23.5273C163.216 24.0977 164.2 24.8828 164.919 25.8828C165.638 26.875 166.013 28.0156 166.044 29.3047H162.552ZM173.999 47V23H189.046V26.1172H177.62V33.4297H188.261V36.5352H177.62V43.8828H189.187V47H173.999Z" fill="white"/>
<rect width="135" height="70" transform="translate(226)" fill="#A2C83E"/>
<path d="M262.637 23H267.031L274.672 41.6562H274.953L282.594 23H286.988V47H283.543V29.6328H283.32L276.242 46.9648H273.383L266.305 29.6211H266.082V47H262.637V23ZM299.174 23V47H295.553V23H299.174ZM306.564 26.1172V23H325.138V26.1172H317.65V47H314.04V26.1172H306.564Z" fill="white"/>
</svg>
