<svg width="597" height="132" viewBox="0 0 597 132" fill="none" xmlns="http://www.w3.org/2000/svg">
<path d="M176.5 70.7H196.7C202.1 70.7 209.8 74 209.8 80.3C209.8 86.9 202.1 88.7 196.7 88.7H176.5V70.7ZM176.5 43H196.7C205.1 43 207.7 48.4 207.7 51.6C207.7 55.6 205 59.1 196.7 59.1H176.5V43ZM196.7 31C185.6 31 174.5 31 163.5 31V101C174.6 101 185.6 101 196.7 101C211.2 101 222.9 96 222.9 80.4C222.9 76 219.9 67.3 211.7 64.8C218.2 61.9 220.8 56.7 220.8 51.3C220.8 37.2 210.5 31 196.7 31ZM231.262 51.7V101H243.462V75C243.462 65.9 249.362 62.5 255.762 62.5C259.762 62.5 262.062 63.6 264.562 65.7L270.062 55.1C267.362 52.4 262.462 50.4 257.362 50.4C252.362 50.4 247.262 51.3 243.462 57.4L242.562 51.7H231.262ZM286.821 51.5V101H274.621V51.5H286.821ZM273.521 37.8C273.521 47.3 287.921 47.3 287.921 37.8C287.921 28.3 273.521 28.3 273.521 37.8ZM321.763 61.9C329.463 61.9 336.063 67.7 336.063 76.3C336.063 85.2 329.463 90.8 321.763 90.8C313.963 90.8 307.763 84.9 307.763 76.3C307.763 67.4 313.963 61.9 321.763 61.9ZM336.863 31.1V58.4C333.963 53.3 325.863 50.5 320.663 50.5C306.263 50.5 295.563 59.3 295.563 76.3C295.563 92.5 306.463 102.1 320.963 102.1C326.963 102.1 333.063 100.1 336.863 94.2L337.663 101H349.063V31.1H336.863ZM393.48 52.9C390.08 50.6 386.08 50.1 382.18 50.1C368.38 50.1 357.18 59.7 357.18 75.1C357.18 90.5 366.78 99.9 382.18 99.9C388.28 99.9 394.68 103 394.68 109.8C394.68 116.6 389.18 120.4 382.18 120.4C375.18 120.4 369.28 116.2 369.28 109.8H357.18C357.18 123.1 367.88 131.8 382.18 131.8C396.48 131.8 406.88 123.4 406.88 109.8C406.88 103.5 404.88 97.6 396.68 93.5C404.78 89.8 407.08 81.2 407.08 75.1C407.08 69.7 405.68 64.8 401.88 60.5L407.38 53.5L398.38 46.7L393.48 52.9ZM382.18 61.2C389.18 61.2 394.98 66.6 394.98 75.1C394.98 83.6 389.18 88.8 382.18 88.8C375.08 88.8 369.28 83.7 369.28 75.1C369.28 66.5 375.08 61.2 382.18 61.2ZM463.755 80.7C465.655 60.4 455.355 50.2 438.855 50.2C422.855 50.2 412.655 61 412.655 76C412.655 91.8 422.755 102.3 439.755 102.3C447.255 102.3 455.755 99.7 460.955 94.3L453.155 86.6C450.355 89.5 444.455 91.2 439.955 91.2C431.355 91.2 426.055 86.8 425.255 80.7H463.755ZM425.455 70.6C427.255 64.2 432.655 61 439.255 61C446.255 61 451.255 64.2 452.055 70.6H425.455ZM492.156 101H505.356V43H527.556V31C507.256 31 490.156 31 469.956 31V43H492.156V101ZM589.28 42.5C583.98 31.7 572.68 28.6 561.78 28.6C548.88 28.7 534.68 34.6 534.68 49C534.68 64.7 547.88 68.5 562.18 70.2C571.48 71.2 578.38 73.9 578.38 80.5C578.38 88.1 570.58 91 562.28 91C553.78 91 545.68 87.6 542.58 79.9L531.58 85.6C536.78 98.4 547.78 102.8 562.08 102.8C577.68 102.8 591.48 96.1 591.48 80.5C591.48 63.8 577.88 60 563.28 58.2C554.88 57.2 547.68 55.5 547.68 49.4C547.68 44.2 552.38 40.1 562.18 40.1C569.78 40.1 576.38 43.9 578.78 47.9L589.28 42.5Z" fill="white"/>
<path d="M0 100.5L88 0L68.5 100.5H0Z" fill="white"/>
<path d="M90 100.5L34.5 17.5L128.5 100.5H90Z" fill="white"/>
</svg>
