<svg width="1512" height="855" viewBox="0 0 1512 855" fill="none" xmlns="http://www.w3.org/2000/svg">
<rect width="1825" height="855" transform="translate(-156)" fill="black"/>
<line x1="1667" y1="603.5" x2="-156" y2="603.5" stroke="white" stroke-opacity="0.2"/>
<line x1="1667" y1="784.5" x2="-156" y2="784.5" stroke="white" stroke-opacity="0.2"/>
<line x1="1667" y1="422.5" x2="-156" y2="422.5" stroke="white" stroke-opacity="0.2"/>
<line x1="1667" y1="241.5" x2="-156" y2="241.5" stroke="white" stroke-opacity="0.2"/>
<line x1="210" y1="512.5" x2="-8" y2="512.5" stroke="white" stroke-opacity="0.2"/>
<line x1="210" y1="648.5" x2="100" y2="648.5" stroke="white" stroke-opacity="0.2"/>
<line x1="99" y1="693.5" x2="-8" y2="693.5" stroke="white" stroke-opacity="0.2"/>
<line x1="210" y1="693.5" x2="156" y2="693.5" stroke="white" stroke-opacity="0.2"/>
<line x1="156" y1="671.5" x2="99" y2="671.5" stroke="white" stroke-opacity="0.2"/>
<line x1="425" y1="828.5" x2="319" y2="828.5" stroke="white" stroke-opacity="0.2"/>
<line x1="374" y1="806.5" x2="318" y2="806.5" stroke="white" stroke-opacity="0.2"/>
<line x1="209" y1="738.5" x2="155" y2="738.5" stroke="white" stroke-opacity="0.2"/>
<line x1="155" y1="693.5" x2="129" y2="693.5" stroke="white" stroke-opacity="0.2"/>
<line x1="320" y1="149.5" x2="210" y2="149.5" stroke="white" stroke-opacity="0.2"/>
<line x1="264" y1="195.5" x2="209" y2="195.5" stroke="white" stroke-opacity="0.2"/>
<line x1="320" y1="195.5" x2="265" y2="195.5" stroke="white" stroke-opacity="0.2"/>
<line x1="320" y1="262.5" x2="265" y2="262.5" stroke="white" stroke-opacity="0.2"/>
<line x1="320" y1="285.5" x2="265" y2="285.5" stroke="white" stroke-opacity="0.2"/>
<line x1="264" y1="285.5" x2="209" y2="285.5" stroke="white" stroke-opacity="0.2"/>
<line x1="426" y1="331.5" x2="209" y2="331.5" stroke="white" stroke-opacity="0.2"/>
<line x1="1084" y1="693.5" x2="864" y2="693.5" stroke="white" stroke-opacity="0.2"/>
<line x1="975" y1="739.5" x2="864" y2="739.5" stroke="white" stroke-opacity="0.2"/>
<line x1="1193" y1="828.5" x2="1085" y2="828.5" stroke="white" stroke-opacity="0.2"/>
<line x1="1667" y1="693.5" x2="1303" y2="693.5" stroke="white" stroke-opacity="0.2"/>
<line x1="1522" y1="671.5" x2="1467" y2="671.5" stroke="white" stroke-opacity="0.2"/>
<line x1="1522" y1="648.5" x2="1414" y2="648.5" stroke="white" stroke-opacity="0.2"/>
<line x1="1521" y1="558.5" x2="1413" y2="558.5" stroke="white" stroke-opacity="0.2"/>
<line x1="1667" y1="332.5" x2="1303" y2="332.5" stroke="white" stroke-opacity="0.2"/>
<line x1="1358" y1="285.5" x2="1303" y2="285.5" stroke="white" stroke-opacity="0.2"/>
<line x1="1303" y1="150.5" x2="1193" y2="150.5" stroke="white" stroke-opacity="0.2"/>
<line x1="1303" y1="103.5" x2="1193" y2="103.5" stroke="white" stroke-opacity="0.2"/>
<line x1="1303" y1="12.5" x2="1193" y2="12.5" stroke="white" stroke-opacity="0.2"/>
<line x1="1222" y1="37.5" x2="1193" y2="37.5" stroke="white" stroke-opacity="0.2"/>
<line x1="1522" y1="512.5" x2="1305" y2="512.5" stroke="white" stroke-opacity="0.2"/>
<line x1="1193" y1="852.5" x2="1139" y2="852.5" stroke="white" stroke-opacity="0.2"/>
<line x1="1413.5" y1="854" x2="1413.5" y2="241" stroke="white" stroke-opacity="0.2"/>
<line x1="1302.5" y1="854" x2="1302.5" y2="-2.18557e-08" stroke="white" stroke-opacity="0.2"/>
<line x1="425.5" y1="854" x2="425.5" y2="332" stroke="white" stroke-opacity="0.2"/>
<line x1="209.5" y1="854" x2="209.5" y2="-2.18557e-08" stroke="white" stroke-opacity="0.2"/>
<line x1="319.5" y1="422" x2="319.5" y2="60" stroke="white" stroke-opacity="0.2"/>
<line x1="648.5" y1="854" x2="648.5" y2="422" stroke="white" stroke-opacity="0.2"/>
<line x1="864.5" y1="854" x2="864.5" y2="422" stroke="white" stroke-opacity="0.2"/>
<line x1="974.5" y1="784" x2="974.5" y2="603" stroke="white" stroke-opacity="0.2"/>
<line x1="538.5" y1="854" x2="538.5" y2="784" stroke="white" stroke-opacity="0.2"/>
<line x1="374.5" y1="854" x2="374.5" y2="784" stroke="white" stroke-opacity="0.2"/>
<line x1="318.5" y1="854" x2="318.5" y2="784" stroke="white" stroke-opacity="0.2"/>
<line x1="347.5" y1="807" x2="347.5" y2="784" stroke="white" stroke-opacity="0.2"/>
<line x1="155.5" y1="784" x2="155.5" y2="603" stroke="white" stroke-opacity="0.2"/>
<line x1="99.5" y1="784" x2="99.5" y2="422" stroke="white" stroke-opacity="0.2"/>
<line x1="264.5" y1="332" x2="264.5" y2="149" stroke="white" stroke-opacity="0.2"/>
<line x1="293.5" y1="286" x2="293.5" y2="241" stroke="white" stroke-opacity="0.2"/>
<line x1="425.5" y1="60" x2="425.5" y2="3" stroke="white" stroke-opacity="0.2"/>
<line x1="99.5" y1="60" x2="99.5" y2="-2.18557e-08" stroke="white" stroke-opacity="0.2"/>
<line x1="1084.5" y1="60" x2="1084.5" y2="-2.18557e-08" stroke="white" stroke-opacity="0.2"/>
<line x1="864.5" y1="60" x2="864.5" y2="-2.18557e-08" stroke="white" stroke-opacity="0.2"/>
<line x1="1192.5" y1="241" x2="1192.5" y2="-2.18557e-08" stroke="white" stroke-opacity="0.2"/>
<line x1="1248.5" y1="150" x2="1248.5" y2="-2.18557e-08" stroke="white" stroke-opacity="0.2"/>
<line x1="1221.5" y1="150" x2="1221.5" y2="12" stroke="white" stroke-opacity="0.2"/>
<line x1="1357.5" y1="332" x2="1357.5" y2="241" stroke="white" stroke-opacity="0.2"/>
<line x1="1466.5" y1="694" x2="1466.5" y2="512" stroke="white" stroke-opacity="0.2"/>
<line x1="1495.5" y1="694" x2="1495.5" y2="648" stroke="white" stroke-opacity="0.2"/>
<line x1="1192.5" y1="854" x2="1192.5" y2="784" stroke="white" stroke-opacity="0.2"/>
<line x1="1138.5" y1="854" x2="1138.5" y2="784" stroke="white" stroke-opacity="0.2"/>
<line x1="919.5" y1="784" x2="919.5" y2="694" stroke="white" stroke-opacity="0.2"/>
<line x1="129.5" y1="784" x2="129.5" y2="603" stroke="white" stroke-opacity="0.2"/>
<line x1="1084.5" y1="854" x2="1084.5" y2="603" stroke="white" stroke-opacity="0.2"/>
<line x1="1084.5" y1="422" x2="1084.5" y2="241" stroke="white" stroke-opacity="0.2"/>
<line x1="1084.5" y1="241" x2="1084.5" y2="60" stroke="white" stroke-opacity="0.2"/>
<line x1="648.5" y1="422" x2="648.5" y2="241" stroke="white" stroke-opacity="0.2"/>
<line x1="1667" y1="60.5002" x2="-156" y2="60.5001" stroke="white" stroke-opacity="0.2"/>
<rect x="-156" width="1823" height="854" fill="url(#paint0_radial_42_102)"/>
<defs>
<radialGradient id="paint0_radial_42_102" cx="0" cy="0" r="1" gradientUnits="userSpaceOnUse" gradientTransform="translate(755.5 427) rotate(90) scale(427 911.5)">
<stop stop-opacity="0"/>
<stop offset="0.895833" stop-opacity="0.5"/>
<stop offset="1"/>
</radialGradient>
</defs>
</svg>
