<svg width="519" height="101" viewBox="0 0 519 101" fill="none" xmlns="http://www.w3.org/2000/svg">
<path d="M139.75 45.73H157.93C162.79 45.73 169.72 48.7 169.72 54.37C169.72 60.31 162.79 61.93 157.93 61.93H139.75V45.73ZM139.75 20.8H157.93C165.49 20.8 167.83 25.66 167.83 28.54C167.83 32.14 165.4 35.29 157.93 35.29H139.75V20.8ZM157.93 10C147.94 10 137.95 10 128.05 10V73C138.04 73 147.94 73 157.93 73C170.98 73 181.51 68.5 181.51 54.46C181.51 50.5 178.81 42.67 171.43 40.42C177.28 37.81 179.62 33.13 179.62 28.27C179.62 15.58 170.35 10 157.93 10ZM189.036 28.63V73H200.016V49.6C200.016 41.41 205.326 38.35 211.086 38.35C214.686 38.35 216.756 39.34 219.006 41.23L223.956 31.69C221.526 29.26 217.116 27.46 212.526 27.46C208.026 27.46 203.436 28.27 200.016 33.76L199.206 28.63H189.036ZM239.039 28.45V73H228.059V28.45H239.039ZM227.069 16.12C227.069 24.67 240.029 24.67 240.029 16.12C240.029 7.56999 227.069 7.56999 227.069 16.12ZM270.487 37.81C277.417 37.81 283.357 43.03 283.357 50.77C283.357 58.78 277.417 63.82 270.487 63.82C263.467 63.82 257.887 58.51 257.887 50.77C257.887 42.76 263.467 37.81 270.487 37.81ZM284.077 10.09V34.66C281.467 30.07 274.177 27.55 269.497 27.55C256.537 27.55 246.907 35.47 246.907 50.77C246.907 65.35 256.717 73.99 269.767 73.99C275.167 73.99 280.657 72.19 284.077 66.88L284.797 73H295.057V10.09H284.077ZM335.032 29.71C331.972 27.64 328.372 27.19 324.862 27.19C312.442 27.19 302.362 35.83 302.362 49.69C302.362 63.55 311.002 72.01 324.862 72.01C330.352 72.01 336.112 74.8 336.112 80.92C336.112 87.04 331.162 90.46 324.862 90.46C318.562 90.46 313.252 86.68 313.252 80.92H302.362C302.362 92.89 311.992 100.72 324.862 100.72C337.732 100.72 347.092 93.16 347.092 80.92C347.092 75.25 345.292 69.94 337.912 66.25C345.202 62.92 347.272 55.18 347.272 49.69C347.272 44.83 346.012 40.42 342.592 36.55L347.542 30.25L339.442 24.13L335.032 29.71ZM324.862 37.18C331.162 37.18 336.382 42.04 336.382 49.69C336.382 57.34 331.162 62.02 324.862 62.02C318.472 62.02 313.252 57.43 313.252 49.69C313.252 41.95 318.472 37.18 324.862 37.18ZM398.28 54.73C399.99 36.46 390.72 27.28 375.87 27.28C361.47 27.28 352.29 37 352.29 50.5C352.29 64.72 361.38 74.17 376.68 74.17C383.43 74.17 391.08 71.83 395.76 66.97L388.74 60.04C386.22 62.65 380.91 64.18 376.86 64.18C369.12 64.18 364.35 60.22 363.63 54.73H398.28ZM363.81 45.64C365.43 39.88 370.29 37 376.23 37C382.53 37 387.03 39.88 387.75 45.64H363.81ZM423.841 73H435.721V20.8H455.701V10C437.431 10 422.041 10 403.861 10V20.8H423.841V73ZM511.252 20.35C506.482 10.63 496.312 7.84 486.502 7.84C474.892 7.93 462.112 13.24 462.112 26.2C462.112 40.33 473.992 43.75 486.862 45.28C495.232 46.18 501.442 48.61 501.442 54.55C501.442 61.39 494.422 64 486.952 64C479.302 64 472.012 60.94 469.222 54.01L459.322 59.14C464.002 70.66 473.902 74.62 486.772 74.62C500.812 74.62 513.232 68.59 513.232 54.55C513.232 39.52 500.992 36.1 487.852 34.48C480.292 33.58 473.812 32.05 473.812 26.56C473.812 21.88 478.042 18.19 486.862 18.19C493.702 18.19 499.642 21.61 501.802 25.21L511.252 20.35Z" fill="black"/>
<path fill-rule="evenodd" clip-rule="evenodd" d="M26 0C21.5817 0 18 3.58172 18 8V38H8C3.58172 38 0 41.5817 0 46V79C0 83.4183 3.58172 87 8 87H41C45.4183 87 49 83.4183 49 79V68H78C82.4183 68 86 64.4183 86 60V8C86 3.58172 82.4183 0 78 0H26ZM49 68V46C49 41.5817 45.4183 38 41 38H18V60C18 64.4183 21.5817 68 26 68H49Z" fill="#404EED"/>
</svg>
